<svg width="20" height="20" viewBox="0 0 20 20" fill="none" xmlns="http://www.w3.org/2000/svg">
<path fill-rule="evenodd" clip-rule="evenodd" d="M8.00006 4C5.79092 4 4.00006 5.79086 4.00006 8C4.00006 10.2091 5.79092 12 8.00006 12C10.2092 12 12.0001 10.2091 12.0001 8C12.0001 5.79086 10.2092 4 8.00006 4ZM2.00006 8C2.00006 4.68629 4.68635 2 8.00006 2C11.3138 2 14.0001 4.68629 14.0001 8C14.0001 9.29583 13.5893 10.4957 12.8908 11.4765L17.7072 16.2929C18.0977 16.6834 18.0977 17.3166 17.7072 17.7071C17.3166 18.0976 16.6835 18.0976 16.293 17.7071L11.4766 12.8907C10.4958 13.5892 9.29589 14 8.00006 14C4.68635 14 2.00006 11.3137 2.00006 8Z" fill="#111827"/>
</svg>
